<?xml version="1.0" encoding="UTF-8"?>
<svg xmlns="http://www.w3.org/2000/svg" xmlns:xlink="http://www.w3.org/1999/xlink" width="426.5778pt" height="326.4414pt" viewBox="0 0 426.5778 326.4414" version="1.1">
<g id="surface1">
<path style=" stroke:none;fill-rule:evenodd;fill:rgb(100%,100%,100%);fill-opacity:1;" d="M 400.277344 68.273438 C 400.277344 68.273438 403.085938 65.460938 401.679688 60.371094 C 400.277344 55.28125 405.542969 50.011719 410.457031 54.402344 C 415.371094 58.96875 408.351563 67.921875 400.277344 68.273438 "/>
<path style=" stroke:none;fill-rule:evenodd;fill:rgb(100%,100%,100%);fill-opacity:1;" d="M 370.265625 134.808594 C 371.84375 132.351563 374.476563 128.136719 376.40625 124.800781 C 376.933594 123.921875 377.8125 124.449219 377.636719 124.976563 C 377.636719 124.976563 376.058594 140.25 386.234375 140.601563 C 396.589844 140.953125 392.203125 118.480469 392.203125 117.074219 C 392.203125 113.917969 384.304688 81.613281 405.015625 80.210938 C 419.054688 79.15625 419.40625 89.339844 422.214844 90.566406 C 425.199219 91.796875 424.847656 90.566406 424.847656 90.566406 C 425.023438 91.09375 425.722656 91.621094 425.550781 91.796875 C 423.265625 94.605469 421.335938 97.765625 419.757813 100.925781 C 419.40625 101.453125 418.179688 100.75 418.179688 100.222656 C 418.878906 96.710938 418.003906 83.371094 409.402344 84.246094 C 401.332031 85.125 404.488281 99.34375 404.839844 105.3125 C 405.542969 117.601563 408.175781 131.472656 398.875 140.425781 C 394.132813 145.167969 383.425781 149.378906 376.761719 138.671875 C 373.421875 133.054688 370.265625 138.320313 370.265625 134.808594 Z M 374.125 59.140625 C 374.125 61.25 373.949219 63.355469 373.074219 65.460938 C 364.472656 82.316406 355.695313 98.992188 346.921875 115.847656 C 344.640625 118.832031 343.0625 118.65625 341.304688 118.832031 C 349.730469 123.222656 358.15625 127.609375 366.578125 132 L 374.476563 124.097656 L 372.894531 123.222656 C 368.160156 126.207031 360.964844 127.082031 358.679688 123.398438 C 367.808594 106.015625 376.761719 88.460938 385.886719 71.082031 C 386.585938 69.675781 387.992188 68.621094 389.921875 68.273438 C 384.65625 65.285156 379.390625 62.128906 374.125 59.140625 Z M 313.925781 106.542969 C 315.507813 106.191406 316.910156 104.261719 318.664063 100.925781 C 326.214844 83.371094 331.476563 70.554688 338.675781 50.890625 C 339.550781 49.488281 340.429688 45.449219 340.253906 44.046875 L 365.175781 54.929688 L 363.246094 65.460938 C 362.71875 65.460938 362.015625 65.460938 361.492188 65.460938 C 360.964844 55.105469 356.75 53.523438 352.1875 52.820313 C 349.203125 60.195313 346.394531 67.394531 343.589844 74.589844 C 345.34375 79.15625 352.363281 77.222656 353.59375 71.78125 L 354.820313 72.132813 L 347.097656 91.09375 C 346.746094 90.917969 346.394531 90.742188 346.046875 90.742188 C 346.394531 85.652344 347.097656 80.734375 341.304688 80.910156 C 337.621094 89.863281 334.109375 98.640625 330.421875 107.421875 C 329.019531 113.566406 334.109375 113.039063 342.183594 109.527344 L 342.886719 110.582031 L 338.675781 118.132813 C 338.675781 118.132813 315.507813 107.421875 313.925781 106.542969 Z M 293.390625 99.695313 C 298.660156 101.453125 304.097656 103.207031 309.363281 104.789063 C 308.660156 102.328125 308.835938 99.695313 309.714844 97.238281 C 314.980469 80.734375 320.421875 64.234375 325.863281 47.730469 C 327.089844 45.097656 328.492188 42.816406 330.601563 41.585938 C 325.335938 39.65625 320.070313 37.722656 314.804688 35.617188 C 314.804688 38.074219 314.804688 40.53125 314.453125 42.992188 C 308.835938 59.492188 303.398438 76.171875 297.957031 92.671875 C 296.902344 95.832031 295.324219 98.117188 293.390625 99.695313 Z M 267.769531 25.960938 C 270.929688 26.664063 274.261719 27.191406 277.597656 27.894531 L 287.953125 70.554688 C 291.109375 59.84375 294.269531 47.554688 297.429688 36.671875 C 297.78125 34.566406 297.78125 32.457031 296.902344 30.703125 C 299.886719 31.40625 303.398438 32.457031 306.378906 33.160156 C 304.976563 34.214844 303.921875 35.617188 303.222656 37.722656 L 286.898438 97.414063 L 279.351563 95.660156 L 270.578125 51.417969 C 268.292969 62.128906 265.835938 75.117188 263.378906 86.003906 C 263.03125 87.582031 263.734375 90.390625 264.609375 92.851563 C 261.625 92.324219 258.820313 91.796875 255.835938 91.445313 C 257.238281 89.511719 258.117188 87.40625 258.644531 84.773438 C 261.976563 67.21875 265.488281 49.660156 268.820313 32.28125 C 268.996094 29.824219 268.472656 27.71875 267.769531 25.960938 Z M 228.632813 21.398438 C 233.191406 21.746094 237.757813 22.097656 242.496094 22.449219 C 244.601563 42.816406 246.886719 63.179688 248.988281 83.542969 C 249.339844 86.53125 250.394531 88.8125 252.324219 90.917969 C 245.304688 89.863281 238.285156 89.511719 230.035156 88.988281 C 232.140625 87.582031 233.546875 85.476563 234.421875 82.667969 L 233.894531 71.433594 L 220.90625 70.730469 C 219.679688 74.414063 218.449219 78.101563 217.222656 81.789063 C 217.046875 83.894531 217.222656 86.003906 219.152344 88.636719 C 215.820313 88.109375 211.957031 87.757813 207.746094 87.582031 C 210.027344 85.828125 211.429688 83.894531 212.308594 81.4375 C 218.101563 64.410156 223.71875 47.378906 229.332031 30.351563 C 230.5625 27.191406 229.683594 24.207031 228.632813 21.398438 Z M 222.488281 65.988281 C 221.960938 65.8125 233.371094 66.691406 233.371094 66.691406 L 230.210938 43.339844 Z M 184.054688 5.597656 C 186.160156 31.40625 188.089844 57.386719 190.195313 83.371094 C 206.515625 83.195313 200.902344 55.628906 200.023438 41.9375 C 198.796875 25.960938 197.917969 1.382813 184.054688 5.597656 Z M 167.730469 2.085938 C 168.960938 3.664063 169.664063 5.421875 170.1875 7.527344 C 172.292969 32.808594 174.574219 58.265625 176.683594 83.71875 C 176.683594 86.53125 175.804688 88.460938 174.222656 89.863281 C 180.894531 88.988281 190.195313 87.582031 193.882813 87.054688 C 223.191406 82.667969 220.207031 -0.898438 187.386719 1.03125 C 182.648438 1.207031 174.050781 1.558594 167.730469 2.085938 Z M 108.9375 34.738281 C 114.203125 33.6875 119.992188 32.28125 125.257813 31.230469 C 124.558594 32.632813 124.558594 34.214844 124.90625 35.617188 L 130.171875 55.808594 C 132.804688 48.960938 135.613281 41.058594 138.070313 34.039063 C 138.949219 31.929688 138.421875 30.351563 136.84375 28.769531 C 140.351563 28.070313 143.6875 27.367188 147.023438 26.664063 C 144.914063 28.769531 143.335938 31.40625 142.632813 34.039063 C 140.351563 40.53125 137.367188 47.90625 135.789063 53.699219 C 135.085938 56.507813 138.421875 59.320313 144.386719 57.035156 C 148.601563 55.457031 148.953125 58.96875 149.300781 60.019531 C 152.8125 68.097656 156.324219 76.171875 159.835938 84.421875 C 160.886719 86.53125 162.292969 88.636719 164.046875 90.214844 C 158.957031 91.269531 153.691406 92.5 148.425781 93.550781 L 133.683594 60.195313 L 132.101563 63.882813 C 134.035156 72.835938 136.140625 81.613281 138.070313 90.390625 C 138.773438 92.324219 139.652344 93.902344 140.703125 95.308594 C 135.4375 96.710938 130.171875 98.292969 124.90625 99.871094 C 125.433594 98.292969 125.785156 96.359375 125.609375 94.078125 C 121.046875 75.996094 116.484375 57.914063 111.921875 39.832031 C 111.21875 37.722656 110.515625 36.144531 108.9375 34.738281 Z M 101.917969 35.96875 C 97.179688 41.234375 95.421875 37.898438 89.980469 39.65625 C 75.238281 44.21875 77.519531 65.988281 82.085938 78.101563 C 89.105469 97.765625 101.742188 110.054688 114.027344 104.789063 C 123.328125 100.75 123.152344 85.652344 112.796875 81.613281 C 115.429688 86.003906 120.167969 99.34375 112.972656 102.503906 C 104.902344 106.015625 99.988281 85.476563 95.421875 72.132813 C 87.699219 48.433594 89.105469 43.339844 92.964844 42.113281 C 99.808594 39.832031 102.441406 45.097656 104.722656 47.203125 C 103.496094 43.515625 103.144531 39.832031 101.917969 35.96875 Z M 42.773438 60.722656 C 46.808594 58.617188 50.84375 56.507813 55.054688 54.402344 C 67.34375 70.730469 79.628906 87.054688 92.089844 103.558594 C 93.84375 105.839844 95.949219 107.421875 98.582031 108.125 C 91.914063 111.285156 85.242188 114.621094 78.574219 117.777344 C 79.628906 115.671875 79.800781 113.039063 79.101563 110.230469 L 72.78125 100.925781 L 61.199219 106.894531 C 62.078125 110.753906 62.953125 114.445313 63.832031 118.304688 C 64.707031 120.234375 65.9375 121.992188 68.921875 123.222656 C 65.410156 124.800781 62.078125 126.558594 58.566406 128.136719 C 59.621094 125.679688 59.96875 123.046875 59.621094 120.410156 C 55.582031 103.03125 51.722656 85.476563 47.859375 67.921875 C 47.15625 64.761719 45.050781 62.652344 42.773438 60.722656 Z M 60.320313 102.152344 C 59.792969 102.152344 69.972656 97.0625 69.972656 97.0625 L 55.230469 78.628906 Z M 1 60.546875 C 3.28125 61.949219 5.386719 63.179688 6.089844 64.9375 C 17.5 83.71875 28.90625 102.679688 40.3125 121.640625 C 47.859375 144.992188 22.761719 143.9375 19.777344 132.175781 C 18.902344 128.664063 16.269531 121.640625 24.871094 118.832031 C 24.167969 111.632813 17.671875 110.933594 12.933594 113.390625 C -3.210938 122.167969 15.390625 155.171875 39.613281 142.355469 C 48.738281 137.617188 55.230469 121.816406 50.667969 113.742188 L 18.726563 57.386719 C 17.847656 54.929688 17.671875 52.472656 17.671875 50.363281 C 12.058594 53.875 6.617188 57.210938 1 60.546875 "/>
<path style=" stroke:none;fill-rule:evenodd;fill:rgb(100%,100%,100%);fill-opacity:1;" d="M 282.160156 135.863281 L 287.953125 115.671875 L 303.222656 120.0625 L 301.992188 124.273438 L 291.8125 121.289063 L 290.761719 124.800781 L 300.0625 127.433594 L 299.007813 131.472656 L 289.707031 128.839844 L 288.476563 133.226563 L 299.007813 136.214844 L 297.78125 140.425781 Z M 251.796875 128.839844 L 255.835938 108.296875 L 263.03125 109.703125 L 263.734375 120.410156 C 263.90625 121.289063 263.90625 122.167969 263.90625 123.046875 C 263.90625 123.921875 263.90625 124.800781 263.90625 125.679688 C 264.261719 124.800781 264.609375 123.921875 264.960938 123.046875 C 265.3125 122.167969 266.015625 121.289063 266.363281 120.410156 L 270.929688 111.285156 L 278.125 112.6875 L 274.089844 133.40625 L 269.175781 132.351563 L 271.105469 123.222656 C 271.105469 122.695313 271.453125 121.816406 271.632813 120.585938 C 271.804688 119.359375 272.332031 118.132813 272.683594 116.550781 L 265.488281 131.648438 L 260.222656 130.59375 L 259.519531 113.917969 C 259.167969 115.847656 258.992188 117.601563 258.644531 119.007813 C 258.464844 120.410156 258.292969 121.640625 258.117188 122.34375 L 256.535156 129.894531 Z M 238.105469 126.734375 L 240.566406 106.015625 L 245.832031 106.542969 L 243.375 127.433594 Z M 220.207031 125.503906 L 221.261719 108.296875 L 215.292969 107.949219 L 215.46875 104.085938 L 232.492188 105.3125 L 232.140625 109 L 226.175781 108.648438 L 224.945313 125.855469 Z M 177.207031 127.609375 L 175.101563 106.71875 L 184.054688 105.839844 C 187.039063 105.488281 189.496094 106.191406 191.425781 107.773438 C 193.179688 109.527344 194.234375 111.984375 194.582031 115.320313 C 194.933594 118.832031 194.410156 121.464844 192.828125 123.398438 C 191.425781 125.328125 188.792969 126.382813 185.457031 126.734375 Z M 182.296875 122.695313 L 185.105469 122.34375 C 186.6875 122.167969 187.914063 121.640625 188.441406 120.585938 C 189.144531 119.710938 189.496094 117.953125 189.320313 115.847656 C 188.96875 113.917969 188.441406 112.335938 187.738281 111.460938 C 186.859375 110.582031 185.457031 110.054688 183.878906 110.230469 L 180.894531 110.582031 Z M 152.636719 131.296875 L 148.25 110.582031 L 153.515625 109.527344 L 156.851563 125.679688 L 168.257813 123.570313 L 169.3125 127.960938 Z M 120.167969 130.066406 C 119.117188 126.734375 119.117188 123.921875 120.167969 121.464844 C 121.398438 119.007813 123.503906 117.074219 126.488281 116.199219 C 129.472656 115.144531 132.28125 115.144531 134.734375 116.375 C 137.195313 117.601563 138.949219 120.0625 140 123.222656 C 141.054688 126.382813 141.230469 129.191406 140 131.648438 C 138.773438 134.105469 136.667969 136.035156 133.683594 137.089844 C 130.699219 137.96875 127.890625 137.96875 125.609375 136.738281 C 123.152344 135.511719 121.398438 133.226563 120.167969 130.066406 Z M 125.433594 128.3125 C 125.960938 130.242188 127.015625 131.648438 128.066406 132.523438 C 129.296875 133.226563 130.699219 133.40625 132.28125 132.703125 C 133.683594 132.351563 134.734375 131.296875 135.261719 130.066406 C 135.613281 128.664063 135.4375 126.90625 134.910156 124.976563 C 134.210938 123.046875 133.15625 121.640625 131.929688 120.761719 C 130.875 119.886719 129.296875 119.886719 127.890625 120.410156 C 126.488281 120.761719 125.257813 121.816406 124.90625 123.046875 C 124.558594 124.449219 124.734375 126.207031 125.433594 128.3125 "/>
<path style=" stroke:none;fill-rule:evenodd;fill:rgb(100%,100%,100%);fill-opacity:1;" d="M 211.957031 156.402344 C 284.617188 156.402344 343.761719 189.230469 343.761719 229.605469 C 343.761719 269.988281 284.617188 302.988281 211.957031 302.988281 C 139.652344 302.988281 80.328125 269.988281 80.328125 229.605469 C 80.328125 189.230469 139.652344 156.402344 211.957031 156.402344 Z M 211.957031 161.058594 C 182.863281 161.058594 151.109375 166.582031 125.035156 179.9375 C 107.90625 188.710938 88.601563 203.648438 85.425781 223.953125 C 85.132813 225.824219 84.984375 227.714844 84.984375 229.605469 C 84.984375 231.460938 85.128906 233.316406 85.40625 235.148438 C 88.523438 255.5 107.824219 270.515625 124.960938 279.339844 C 151.046875 292.765625 182.828125 298.335938 211.957031 298.335938 C 241.144531 298.335938 273.007813 292.796875 299.148438 279.351563 C 316.292969 270.53125 335.550781 255.535156 338.679688 235.1875 C 338.964844 233.339844 339.105469 231.476563 339.105469 229.605469 C 339.105469 227.703125 338.957031 225.800781 338.660156 223.917969 C 335.476563 203.613281 316.210938 188.695313 299.078125 179.925781 C 272.941406 166.546875 241.109375 161.058594 211.957031 161.058594 "/>
<path style=" stroke:none;fill-rule:evenodd;fill:rgb(100%,100%,100%);fill-opacity:1;" d="M 68.394531 182.035156 C 81.382813 187.824219 94.894531 187.125 95.773438 177.46875 C 56.285156 170.617188 86.296875 153.59375 98.582031 173.429688 C 107.707031 173.253906 114.378906 171.5 119.117188 167.289063 C 89.632813 158.15625 120.167969 147.625 122.976563 162.722656 C 129.996094 163.425781 135.964844 163.074219 139.824219 158.683594 C 119.46875 152.1875 136.84375 143.410156 144.914063 155.171875 C 150.707031 155.171875 154.21875 153.769531 158.253906 150.960938 C 152.285156 140.777344 165.625 140.425781 163.695313 149.730469 C 177.734375 152.363281 189.84375 148.503906 200.023438 144.289063 C 201.078125 148.503906 205.640625 150.609375 208.273438 150.785156 C 206.515625 145.867188 208.800781 142.53125 211.429688 141.65625 C 215.117188 140.25 220.03125 144.113281 217.574219 150.609375 C 221.261719 149.90625 224.945313 148.675781 226 144.289063 C 236.003906 148.675781 248.113281 152.363281 262.328125 149.90625 C 260.222656 140.425781 273.5625 140.777344 267.59375 150.960938 C 271.632813 153.769531 275.316406 155.171875 281.109375 155.171875 C 289.179688 143.410156 306.554688 152.1875 286.023438 158.683594 C 289.882813 163.074219 295.851563 163.425781 302.871094 162.722656 C 305.679688 147.800781 336.21875 158.15625 306.730469 167.289063 C 311.644531 171.5 318.136719 173.253906 327.441406 173.429688 C 339.726563 153.59375 369.738281 170.796875 330.074219 177.46875 C 330.949219 187.125 344.640625 187.824219 357.453125 182.035156 C 350.082031 191.339844 329.195313 190.808594 326.738281 176.414063 C 313.050781 176.414063 307.609375 171.148438 301.816406 166.234375 C 293.566406 165.527344 286.546875 163.25 281.984375 157.277344 C 275.316406 157.628906 269.699219 155.523438 265.3125 151.308594 C 251.449219 152.890625 238.460938 152.363281 227.050781 146.394531 C 225.121094 150.960938 217.75 155.875 212.835938 152.1875 C 207.921875 155.523438 200.726563 151.136719 198.796875 146.21875 C 187.386719 152.363281 174.574219 152.890625 160.535156 151.308594 C 156.324219 155.523438 150.707031 157.628906 143.863281 157.277344 C 139.300781 163.25 132.28125 165.527344 124.207031 166.234375 C 118.238281 171.148438 112.972656 176.238281 99.109375 176.414063 C 96.652344 190.808594 75.765625 191.339844 68.394531 182.035156 Z M 331.304688 173.609375 C 330.601563 169.21875 344.289063 163.25 346.570313 167.457031 C 348.148438 170.269531 337.972656 174.484375 331.304688 173.609375 Z M 305.152344 163.074219 C 304.800781 157.980469 313.925781 154.820313 316.558594 157.980469 C 318.316406 160.089844 311.820313 163.949219 305.152344 163.074219 Z M 286.375 154.46875 C 285.847656 150.433594 291.8125 150.960938 292.867188 152.363281 C 293.042969 152.363281 292.691406 155.875 286.375 154.46875 Z M 265.136719 149.027344 C 264.082031 147.976563 265.136719 145.167969 266.191406 145.34375 C 267.242188 145.34375 267.59375 148.503906 265.136719 149.027344 Z M 212.660156 150.609375 C 210.027344 149.90625 210.203125 146.21875 210.730469 145.34375 C 211.605469 143.410156 214.0625 143.234375 214.941406 145.34375 C 215.992188 147.800781 214.765625 150.257813 212.660156 150.609375 Z M 160.710938 149.027344 C 161.765625 147.976563 160.886719 145.167969 159.835938 145.34375 C 158.78125 145.34375 158.253906 148.503906 160.710938 149.027344 Z M 139.476563 154.117188 C 140 149.90625 134.035156 150.433594 132.980469 151.835938 C 132.804688 151.835938 133.15625 155.347656 139.476563 154.117188 Z M 120.695313 163.074219 C 121.046875 157.980469 111.921875 154.996094 109.289063 157.980469 C 107.707031 160.089844 114.027344 163.949219 120.695313 163.074219 Z M 94.722656 173.609375 C 95.246094 169.21875 81.382813 163.25 79.277344 167.457031 C 77.871094 170.269531 87.875 174.484375 94.722656 173.609375 "/>
<path style=" stroke:none;fill-rule:evenodd;fill:rgb(100%,100%,100%);fill-opacity:1;" d="M 348.679688 228.207031 C 348.679688 217.144531 345.695313 205.734375 337.796875 196.78125 C 349.203125 197.835938 359.03125 188.355469 363.769531 184.488281 C 368.6875 180.804688 363.945313 171.847656 380.09375 173.078125 C 382.902344 172.203125 383.953125 170.796875 390.097656 171.324219 C 386.761719 172.378906 385.183594 173.609375 384.480469 174.832031 C 385.535156 177.292969 386.234375 180.277344 386.234375 180.277344 C 410.632813 174.484375 422.566406 199.589844 400.277344 221.886719 C 411.683594 231.011719 398.519531 250.152344 385.707031 257.871094 C 389.394531 264.015625 380.96875 277.886719 358.859375 283.859375 C 362.71875 294.214844 342.183594 303.167969 322.527344 301.9375 C 320.070313 319.84375 291.460938 312.121094 271.804688 311.070313 C 271.632813 314.929688 283.039063 313.875 281.109375 319.144531 C 277.597656 329.675781 257.238281 313.175781 244.425781 314.054688 C 239.335938 314.230469 233.019531 316.335938 240.917969 316.160156 C 251.796875 316.335938 248.816406 323.355469 240.566406 325.109375 C 228.980469 326.515625 220.734375 322.304688 211.78125 321.25 C 202.65625 322.128906 194.410156 326.691406 182.472656 325.109375 C 174.402344 323.355469 171.417969 316.511719 182.296875 316.160156 C 190.195313 316.335938 183.878906 314.402344 178.789063 314.230469 C 165.976563 313.175781 145.617188 329.851563 141.933594 319.320313 C 140.175781 313.875 151.585938 314.929688 151.410156 311.070313 C 131.753906 312.121094 103.144531 319.84375 100.511719 301.9375 C 80.855469 303.167969 60.496094 294.214844 64.359375 283.859375 C 42.242188 277.886719 33.820313 264.015625 37.507813 257.871094 C 24.695313 250.152344 11.53125 231.011719 22.9375 221.886719 C 0.648438 199.589844 12.582031 174.484375 36.980469 180.277344 C 36.980469 180.277344 37.679688 177.292969 38.734375 175.007813 C 38.03125 173.609375 36.453125 172.378906 33.117188 171.324219 C 39.261719 170.796875 40.3125 172.203125 43.121094 173.078125 C 59.269531 171.847656 54.53125 180.804688 59.269531 184.488281 C 64.183594 188.355469 74.011719 197.835938 85.417969 196.78125 C 77.34375 205.734375 74.535156 217.144531 74.535156 228.207031 C 74.535156 290 168.082031 309.132813 211.257813 309.132813 C 286.898438 308.433594 348.679688 272.796875 348.679688 228.207031 Z M 237.757813 313.699219 C 259.167969 311.070313 282.160156 305.625 305.328125 299.304688 C 306.03125 295.617188 309.011719 292.984375 314.980469 295.269531 C 322.175781 292.457031 329.019531 288.773438 335.691406 284.207031 C 336.390625 281.398438 336.390625 278.9375 345.695313 278.414063 C 351.835938 273.5 358.15625 268.757813 364.296875 264.015625 C 363.945313 260.855469 364.121094 256.820313 374.828125 254.1875 C 381.320313 245.230469 386.9375 236.457031 388.691406 228.03125 C 379.390625 228.207031 382.375 221.355469 389.042969 219.425781 C 388.867188 216.796875 387.464844 216.796875 386.234375 216.089844 C 374.828125 239.441406 366.578125 218.726563 384.128906 212.753906 C 385.886719 207.488281 386.234375 202.21875 383.425781 199.941406 C 372.546875 225.746094 363.945313 205.03125 380.96875 196.605469 C 382.023438 193.792969 382.375 191.160156 382.023438 188.703125 C 375.707031 192.039063 369.738281 195.898438 364.472656 200.289063 C 374.125 251.550781 339.375 277.183594 323.230469 284.382813 C 352.890625 263.492188 365.175781 234.699219 362.015625 201.519531 C 359.910156 201.695313 357.980469 201.871094 355.875 201.871094 C 357.980469 200.640625 360.085938 199.234375 362.191406 197.835938 C 362.542969 195.550781 362.191406 193.269531 361.664063 190.808594 C 355.875 194.847656 350.082031 198.007813 342.359375 198.710938 C 350.257813 208.367188 351.660156 223.992188 350.960938 231.714844 C 341.832031 295.617188 254.078125 310.363281 211.957031 311.769531 C 155.621094 311.246094 77.519531 288.59375 72.082031 231.714844 C 71.378906 223.992188 72.957031 208.539063 80.855469 198.710938 C 73.132813 198.007813 67.34375 194.847656 61.550781 190.984375 C 61.023438 193.269531 60.671875 195.550781 61.023438 197.835938 C 63.128906 199.234375 65.234375 200.640625 67.34375 201.871094 C 65.234375 201.871094 63.304688 201.695313 61.199219 201.519531 C 58.039063 234.699219 70.324219 263.492188 99.988281 284.382813 C 83.839844 277.183594 48.914063 251.550781 58.742188 200.289063 C 53.476563 195.898438 47.507813 192.039063 41.015625 188.703125 C 40.839844 191.160156 41.191406 193.792969 42.242188 196.605469 C 59.269531 205.03125 50.667969 225.746094 39.789063 199.941406 C 36.980469 202.21875 37.328125 207.488281 39.085938 212.753906 C 56.636719 218.726563 48.386719 239.441406 36.980469 216.089844 C 35.574219 216.796875 34.347656 216.96875 33.996094 219.425781 C 40.839844 221.355469 43.824219 228.207031 34.523438 228.03125 C 36.101563 236.457031 41.894531 245.230469 48.210938 254.1875 C 59.09375 256.996094 59.269531 261.03125 58.917969 264.015625 C 65.058594 268.757813 71.203125 273.671875 77.34375 278.414063 C 86.824219 278.9375 86.824219 281.398438 87.347656 284.207031 C 94.195313 288.773438 101.039063 292.457031 108.234375 295.269531 C 114.203125 292.984375 117.1875 295.617188 117.886719 299.304688 C 141.054688 305.625 164.046875 311.070313 185.457031 313.699219 C 194.234375 314.929688 205.289063 317.738281 211.605469 318.441406 C 218.101563 317.914063 228.632813 314.929688 237.757813 313.699219 Z M 106.480469 297.199219 C 95.597656 301.589844 65.410156 296.320313 66.464844 284.558594 C 72.429688 285.613281 78.75 286.136719 85.242188 285.613281 C 84.894531 285.964844 106.128906 297.898438 106.480469 297.199219 Z M 36.277344 185.894531 C 36.980469 189.933594 37.328125 193.792969 38.03125 197.660156 C 32.066406 202.394531 33.644531 209.769531 35.050781 213.460938 C 33.117188 214.511719 31.539063 215.914063 30.484375 218.726563 C 29.082031 218.726563 27.5 219.074219 25.921875 219.777344 C 5.386719 198.882813 19.605469 173.253906 36.277344 185.894531 Z M 70.324219 282.804688 C 74.363281 283.859375 78.75 283.859375 82.960938 283.503906 C 82.960938 281.925781 81.558594 280.867188 78.398438 280.523438 C 76.46875 281.75 73.308594 282.453125 70.324219 282.804688 Z M 39.964844 259.976563 C 44.175781 264.015625 50.140625 264.542969 56.460938 264.722656 C 61.550781 269.8125 68.570313 275.253906 75.0625 279.644531 C 60.496094 283.683594 38.03125 267.882813 39.964844 259.976563 Z M 25.570313 224.164063 C 20.128906 230.835938 24.695313 241.546875 38.734375 256.117188 C 41.015625 255.242188 44 254.539063 46.28125 254.710938 C 36.277344 242.425781 32.589844 234.527344 31.539063 227.5 C 30.136719 225.746094 28.027344 224.871094 25.570313 224.164063 Z M 55.054688 261.5625 C 54.355469 258.222656 45.753906 255.242188 41.015625 258.222656 C 44.878906 262.613281 55.40625 262.96875 55.054688 261.5625 Z M 33.644531 226.269531 C 33.117188 224.691406 33.117188 223.285156 33.292969 221.710938 C 35.050781 222.0625 37.679688 222.9375 37.679688 224.515625 C 37.507813 226.800781 35.925781 226.976563 33.644531 226.269531 Z M 30.308594 221.355469 C 30.136719 222.0625 30.136719 222.9375 30.136719 223.640625 C 29.257813 223.109375 28.378906 222.585938 27.328125 222.234375 C 28.203125 221.710938 29.082031 221.355469 30.308594 221.355469 Z M 39.789063 215.738281 C 41.894531 215.738281 49.089844 221.355469 46.457031 224.515625 C 45.402344 225.921875 40.839844 219.601563 39.789063 215.738281 Z M 42.945313 200.464844 C 46.28125 202.21875 51.371094 206.609375 49.265625 209.945313 C 48.5625 211.175781 44.527344 204.855469 42.945313 200.464844 Z M 41.191406 182.910156 C 40.664063 180.804688 40.664063 178.523438 41.894531 176.945313 C 47.859375 178.34375 49.96875 185.019531 59.445313 190.285156 C 58.917969 191.6875 58.214844 193.445313 58.390625 195.375 C 53.828125 190.632813 47.859375 186.417969 41.191406 182.910156 Z M 47.15625 175.183594 C 49.792969 175.007813 53.652344 175.539063 54.53125 179.925781 C 51.546875 179.046875 50.316406 177.117188 47.15625 175.183594 Z M 207.394531 319.84375 C 203.359375 319.144531 178.261719 315.984375 178.261719 319.671875 C 178.4375 327.21875 207.21875 319.320313 207.394531 319.84375 Z M 169.839844 313 C 163.34375 313.523438 145.265625 324.234375 144.386719 319.320313 C 143.511719 314.578125 154.917969 316.683594 155.796875 310.714844 C 159.660156 311.769531 169.839844 313 169.839844 313 Z M 148.601563 308.785156 C 126.488281 311.769531 105.25 313.875 103.320313 301.765625 C 107.707031 301.9375 112.09375 301.414063 116.484375 300.359375 C 126.136719 304.394531 137.542969 306.503906 148.601563 308.785156 Z M 103.671875 299.828125 C 107.707031 299.828125 111.746094 299.828125 115.78125 298.777344 C 114.203125 297.722656 113.675781 295.792969 110.867188 296.671875 C 109.464844 298.074219 106.128906 298.953125 103.671875 299.828125 Z M 215.820313 319.84375 C 219.855469 319.144531 244.953125 315.984375 244.953125 319.671875 C 244.777344 327.21875 215.820313 319.320313 215.820313 319.84375 Z M 253.378906 313 C 259.871094 313.523438 277.949219 324.234375 278.828125 319.320313 C 279.527344 314.402344 268.292969 316.683594 267.417969 310.714844 C 263.558594 311.769531 253.378906 313 253.378906 313 Z M 274.613281 308.785156 C 296.726563 311.769531 317.964844 313.875 319.894531 301.765625 C 315.507813 301.9375 311.121094 301.414063 306.730469 300.359375 C 297.078125 304.394531 285.671875 306.503906 274.613281 308.785156 Z M 386.9375 185.894531 C 386.234375 189.933594 385.886719 193.792969 385.183594 197.660156 C 390.976563 202.21875 389.570313 209.769531 388.167969 213.460938 C 390.097656 214.511719 391.675781 215.914063 392.554688 218.726563 C 394.132813 218.726563 395.710938 219.074219 397.292969 219.777344 C 417.652344 198.882813 403.609375 173.253906 386.9375 185.894531 Z M 316.734375 297.199219 C 327.617188 301.589844 357.804688 296.320313 356.75 284.558594 C 350.785156 285.4375 344.289063 286.136719 337.796875 285.4375 C 338.320313 285.964844 317.085938 297.898438 316.734375 297.199219 Z M 319.542969 299.828125 C 315.507813 299.828125 311.292969 299.828125 307.433594 298.777344 C 309.011719 297.722656 309.539063 295.792969 312.347656 296.671875 C 313.75 298.074219 316.910156 298.953125 319.542969 299.828125 Z M 352.890625 282.628906 C 348.851563 283.859375 344.289063 283.859375 340.253906 283.503906 C 340.078125 281.925781 341.65625 280.867188 344.816406 280.523438 C 346.746094 281.75 349.90625 282.453125 352.890625 282.628906 Z M 383.25 259.976563 C 379.039063 264.015625 373.074219 264.542969 366.753906 264.542969 C 361.664063 269.8125 354.644531 275.253906 348.148438 279.644531 C 362.71875 283.683594 385.183594 267.882813 383.25 259.976563 Z M 397.46875 224.164063 C 403.085938 230.835938 398.519531 241.371094 384.480469 256.117188 C 382.023438 255.242188 379.21875 254.539063 376.933594 254.710938 C 386.9375 242.425781 390.621094 234.351563 391.675781 227.5 C 393.082031 225.746094 395.1875 224.691406 397.46875 224.164063 Z M 368.160156 261.5625 C 368.859375 258.222656 377.460938 255.242188 382.199219 258.222656 C 378.335938 262.613281 367.808594 262.96875 368.160156 261.5625 Z M 389.570313 226.097656 C 390.097656 224.691406 390.097656 223.109375 389.921875 221.710938 C 388.167969 222.0625 385.359375 222.9375 385.535156 224.515625 C 385.707031 226.800781 387.289063 226.800781 389.570313 226.097656 Z M 392.90625 221.355469 C 393.082031 222.0625 393.082031 222.9375 393.082031 223.640625 C 393.78125 223.109375 394.660156 222.585938 395.890625 222.234375 C 395.011719 221.710938 393.960938 221.355469 392.90625 221.355469 Z M 383.425781 215.738281 C 381.320313 215.738281 374.125 221.179688 376.761719 224.515625 C 377.636719 225.921875 382.375 219.601563 383.425781 215.738281 Z M 380.269531 200.464844 C 376.933594 202.21875 371.84375 206.609375 373.949219 209.769531 C 374.652344 211.175781 378.511719 204.855469 380.269531 200.464844 Z M 382.023438 182.910156 C 382.550781 180.804688 382.550781 178.523438 381.320313 176.945313 C 375.351563 178.167969 373.25 185.019531 363.769531 190.109375 C 364.296875 191.6875 365 193.445313 364.824219 195.375 C 369.386719 190.632813 375.351563 186.417969 382.023438 182.910156 Z M 376.058594 175.183594 C 373.421875 175.007813 369.5625 175.539063 368.6875 179.75 C 371.492188 178.875 372.722656 177.117188 376.058594 175.183594 "/>
<path style=" stroke:none;fill-rule:evenodd;fill:rgb(100%,100%,100%);fill-opacity:1;" d="M 116.660156 212.40625 C 118.589844 212.40625 120.167969 213.984375 120.167969 215.914063 C 120.167969 217.671875 118.589844 219.25 116.660156 219.25 C 114.730469 219.25 113.324219 217.671875 113.324219 215.914063 C 113.324219 213.984375 114.730469 212.40625 116.660156 212.40625 "/>
<path style=" stroke:none;fill-rule:evenodd;fill:rgb(100%,100%,100%);fill-opacity:1;" d="M 308.835938 212.40625 C 310.59375 212.40625 312.171875 213.984375 312.171875 215.914063 C 312.171875 217.671875 310.59375 219.25 308.835938 219.25 C 306.90625 219.25 305.328125 217.671875 305.328125 215.914063 C 305.328125 213.984375 306.90625 212.40625 308.835938 212.40625 "/>
<path style=" stroke:none;fill-rule:evenodd;fill:rgb(100%,100%,100%);fill-opacity:1;" d="M 248.289063 271.566406 L 254.957031 270.164063 C 256.535156 269.8125 257.765625 269.636719 258.464844 269.636719 C 259.695313 269.636719 260.574219 269.988281 261.449219 270.339844 C 262.328125 270.863281 263.207031 271.566406 263.734375 272.269531 C 264.261719 272.972656 264.785156 274.023438 264.960938 275.253906 C 265.136719 276.484375 265.136719 277.539063 264.960938 278.238281 C 264.609375 279.292969 264.082031 280.34375 263.558594 281.046875 C 263.03125 281.75 262.152344 282.277344 261.101563 282.628906 C 260.398438 282.976563 259.347656 283.328125 257.941406 283.683594 L 251.09375 285.082031 Z M 252.5 272.972656 L 254.253906 282.097656 L 257.0625 281.398438 C 257.941406 281.222656 258.820313 281.046875 259.167969 280.867188 C 259.695313 280.699219 260.222656 280.34375 260.574219 279.992188 C 260.921875 279.644531 261.101563 279.117188 261.277344 278.589844 C 261.449219 277.886719 261.277344 277.007813 261.101563 275.957031 C 260.921875 274.902344 260.574219 274.023438 260.222656 273.671875 C 259.871094 273.148438 259.519531 272.617188 258.820313 272.617188 C 258.464844 272.269531 257.765625 272.269531 257.0625 272.269531 C 256.535156 272.269531 255.484375 272.441406 254.078125 272.617188 Z M 226.523438 287.71875 L 225.824219 274.023438 L 229.683594 273.671875 L 238.285156 282.453125 L 237.757813 273.148438 L 241.445313 272.972656 L 242.320313 286.839844 L 238.285156 287.019531 L 229.683594 278.589844 L 230.386719 287.542969 Z M 220.382813 287.71875 L 216.171875 287.71875 L 214.414063 284.734375 L 206.515625 284.734375 L 204.9375 287.71875 L 200.726563 287.71875 L 208.273438 274.023438 L 212.484375 274.023438 Z M 213.1875 282.277344 L 210.554688 277.183594 L 207.746094 282.277344 Z M 185.984375 278.238281 L 188.617188 278.589844 C 190.371094 278.769531 191.425781 278.9375 191.953125 278.9375 C 192.300781 278.769531 192.828125 278.589844 193.003906 278.414063 C 193.355469 278.238281 193.53125 277.710938 193.53125 277.363281 C 193.53125 276.832031 193.53125 276.484375 193.179688 276.132813 C 193.003906 275.957031 192.476563 275.609375 191.773438 275.429688 C 191.601563 275.429688 190.546875 275.253906 189.320313 275.078125 L 186.335938 274.726563 Z M 181.246094 285.789063 L 183 271.917969 L 190.722656 272.972656 C 192.652344 273.148438 194.058594 273.5 194.757813 273.847656 C 195.8125 274.203125 196.339844 274.726563 196.867188 275.429688 C 197.390625 276.132813 197.390625 276.832031 197.390625 277.710938 C 197.21875 278.769531 196.867188 279.46875 195.988281 279.992188 C 195.109375 280.699219 193.707031 280.867188 192.125 281.046875 C 193.003906 281.398438 193.53125 281.925781 194.058594 282.277344 C 194.410156 282.804688 194.933594 283.683594 195.8125 284.910156 L 197.742188 287.71875 L 193.355469 287.195313 L 191.074219 283.859375 C 190.195313 282.804688 189.667969 281.925781 189.320313 281.75 C 189.144531 281.398438 188.617188 281.046875 188.265625 280.867188 C 187.914063 280.699219 187.210938 280.699219 186.335938 280.523438 L 185.632813 280.523438 L 184.929688 286.136719 Z M 161.765625 267.351563 L 168.960938 268.933594 C 170.539063 269.28125 171.59375 269.636719 172.292969 269.8125 C 172.824219 270.164063 173.523438 270.511719 174.050781 270.863281 C 174.574219 271.21875 174.925781 271.742188 175.101563 272.269531 C 175.453125 272.796875 175.628906 273.5 175.453125 274.023438 C 175.277344 274.550781 174.925781 275.078125 174.402344 275.609375 C 173.875 276.132813 172.996094 276.308594 172.292969 276.308594 C 173.171875 276.832031 174.050781 277.363281 174.574219 278.238281 C 174.925781 278.769531 175.101563 279.644531 174.925781 280.34375 C 174.925781 281.046875 174.574219 281.574219 174.050781 282.097656 C 173.523438 282.453125 172.824219 282.804688 172.117188 282.976563 C 171.417969 283.328125 170.363281 283.328125 169.488281 283.152344 C 168.960938 283.152344 167.378906 282.804688 165.097656 282.277344 L 158.78125 281.046875 Z M 163.695313 275.777344 L 162.992188 279.46875 L 166.503906 280.167969 C 167.730469 280.523438 168.609375 280.699219 168.960938 280.699219 C 169.488281 280.699219 170.011719 280.699219 170.363281 280.523438 C 170.714844 280.34375 171.066406 279.816406 171.066406 279.46875 C 171.242188 278.9375 171.242188 278.589844 171.066406 278.238281 C 170.714844 277.886719 170.363281 277.710938 169.839844 277.539063 C 169.488281 277.183594 168.433594 276.832031 166.679688 276.484375 Z M 164.921875 270.511719 L 164.222656 273.671875 L 166.679688 274.203125 C 168.082031 274.378906 169.136719 274.726563 169.3125 274.726563 C 170.011719 274.726563 170.539063 274.726563 170.890625 274.550781 C 171.417969 274.378906 171.59375 274.023438 171.769531 273.671875 C 171.769531 273.148438 171.769531 272.796875 171.417969 272.441406 C 171.242188 272.269531 170.714844 271.917969 170.1875 271.566406 C 169.839844 271.566406 168.785156 271.21875 167.03125 270.863281 Z M 164.921875 270.511719 "/>
<path style=" stroke:none;fill-rule:evenodd;fill:rgb(100%,100%,100%);fill-opacity:1;" d="M 244.074219 231.191406 C 244.601563 227.675781 245.65625 223.640625 247.585938 219.601563 C 248.289063 217.84375 251.449219 219.601563 252.5 220.304688 C 261.277344 217.671875 264.609375 220.65625 271.277344 220.65625 C 271.980469 220.65625 272.859375 219.601563 273.5625 219.425781 C 276.019531 218.371094 278.125 219.425781 276.546875 221.710938 C 272.507813 227.5 266.539063 233.296875 266.191406 240.316406 C 266.015625 245.9375 269.523438 247.691406 271.980469 244.707031 C 274.4375 242.070313 276.191406 245.230469 275.316406 247.515625 C 272.15625 255.242188 259.167969 259.808594 253.027344 249.445313 C 250.042969 244.355469 254.253906 236.28125 259.695313 233.296875 C 262.152344 231.890625 264.433594 231.367188 265.664063 229.429688 C 261.800781 227.851563 262.503906 230.835938 257.0625 228.90625 C 248.289063 225.921875 248.289063 227.675781 246.886719 231.539063 C 246.359375 233.296875 243.902344 232.589844 244.074219 231.191406 Z M 234.949219 243.125 C 237.757813 243.125 240.214844 245.585938 240.214844 248.390625 C 240.214844 251.203125 237.757813 253.488281 234.949219 253.488281 C 232.140625 253.488281 229.859375 251.203125 229.859375 248.390625 C 229.859375 245.585938 232.140625 243.125 234.949219 243.125 Z M 193.355469 239.964844 C 193.355469 235.925781 194.933594 232.066406 198.09375 229.605469 C 201.253906 226.800781 205.816406 225.394531 211.257813 225.394531 C 216.347656 225.394531 220.734375 226.800781 223.890625 229.429688 C 227.050781 232.066406 228.808594 235.925781 228.808594 239.964844 C 228.808594 244.355469 227.050781 248.042969 223.890625 250.5 C 220.734375 253.132813 216.347656 254.539063 211.257813 254.539063 C 205.816406 254.539063 201.429688 253.132813 198.269531 250.5 C 195.109375 248.042969 193.355469 244.355469 193.355469 239.964844 Z M 215.992188 248.921875 L 215.992188 231.191406 C 215.992188 229.960938 215.292969 229.082031 214.765625 228.554688 C 214.0625 227.851563 212.484375 227.5 211.257813 227.5 C 209.324219 227.5 208.273438 227.851563 207.570313 228.378906 C 206.867188 229.082031 206.34375 229.960938 206.34375 231.191406 L 206.34375 248.921875 C 206.34375 250.152344 206.695313 251.203125 207.21875 251.550781 C 207.921875 252.257813 209.324219 252.433594 211.257813 252.433594 C 212.484375 252.433594 214.0625 252.257813 214.765625 251.550781 C 215.292969 251.203125 215.992188 250.152344 215.992188 248.921875 Z M 156.148438 246.992188 C 156.148438 248.566406 156.324219 249.796875 157.199219 250.152344 C 157.726563 250.5 159.128906 250.851563 161.238281 250.851563 L 161.238281 252.082031 L 148.953125 252.082031 L 148.953125 250.851563 L 149.300781 250.851563 C 151.234375 250.851563 152.460938 250.5 153.164063 250.152344 C 153.867188 249.796875 154.21875 248.566406 154.21875 247.167969 L 154.21875 220.304688 L 148.953125 220.304688 L 148.953125 219.074219 L 169.3125 219.074219 L 184.230469 237.15625 L 184.230469 224.164063 C 184.230469 222.761719 184.054688 221.53125 183.351563 221.179688 C 182.648438 220.65625 181.246094 220.304688 179.316406 220.304688 L 179.136719 220.304688 L 179.136719 219.074219 L 191.601563 219.074219 L 191.601563 220.304688 L 191.25 220.304688 C 189.320313 220.304688 187.914063 220.65625 187.210938 221.003906 C 186.511719 221.53125 186.160156 222.761719 186.160156 224.164063 L 186.160156 252.082031 L 177.910156 252.082031 L 156.148438 225.746094 Z M 240.390625 204.328125 C 240.390625 205.910156 240.566406 209.59375 244.425781 209.59375 C 250.921875 209.59375 249.339844 192.214844 247.9375 189.578125 C 247.058594 187.824219 242.320313 186.773438 241.265625 188.878906 C 239.511719 191.339844 240.390625 201.34375 240.390625 204.328125 Z M 261.101563 174.832031 L 261.101563 212.230469 L 264.433594 212.230469 L 264.433594 213.636719 C 259.167969 213.636719 254.253906 214.511719 249.339844 214.511719 L 248.289063 214.511719 L 248.289063 208.367188 C 247.234375 212.40625 242.847656 214.511719 238.636719 214.511719 C 223.191406 214.511719 223.363281 185.019531 238.460938 185.019531 C 241.96875 185.019531 246.535156 184.664063 248.289063 187.648438 C 249.691406 183.964844 249.691406 180.453125 248.289063 176.945313 L 243.199219 176.945313 L 243.199219 175.714844 C 250.570313 176.238281 257.765625 175.183594 261.101563 174.832031 Z M 202.65625 213.636719 L 202.65625 212.050781 L 206.167969 212.050781 L 206.167969 176.945313 L 203.007813 176.945313 L 203.007813 175.714844 C 208.273438 176.0625 214.414063 175.886719 218.804688 174.832031 L 218.804688 212.050781 L 221.960938 212.050781 L 221.960938 213.636719 Z M 159.660156 194.675781 C 159.660156 176.589844 181.421875 168.863281 193.53125 180.628906 C 200.902344 187.824219 201.078125 201.871094 193.53125 209.070313 C 186.335938 216.089844 173.875 216.265625 166.328125 210.121094 C 161.941406 206.785156 159.660156 200.289063 159.660156 194.675781 Z M 173.523438 205.554688 C 173.523438 207.488281 174.402344 211.699219 179.136719 211.699219 C 184.582031 211.699219 185.105469 208.015625 185.105469 205.554688 L 185.105469 183.613281 C 185.105469 181.152344 184.929688 177.292969 179.136719 177.292969 C 174.050781 177.292969 173.523438 181.503906 173.523438 183.613281 Z M 173.523438 205.554688 "/>
</g>
</svg>
